<?xml version="1.0" encoding="UTF-8"?>
<svg xmlns="http://www.w3.org/2000/svg" xmlns:xlink="http://www.w3.org/1999/xlink" width="1024px" height="350px" viewBox="0 0 1024 350" version="1.1">
<g id="surface1">
<path style=" stroke:none;fill-rule:evenodd;fill:rgb(98.823529%,92.54902%,83.137256%);fill-opacity:1;" d="M 823.699219 123.855469 C 823.113281 124.523438 823.550781 124.976562 824.210938 124.382812 C 824.890625 123.777344 824.90625 123.796875 824.375 124.566406 C 823.875 125.292969 823.039062 125.417969 818.679688 125.417969 C 813.929688 125.417969 813.558594 125.484375 813.351562 126.386719 C 813.160156 127.21875 812.769531 127.363281 810.683594 127.363281 C 808.78125 127.363281 808.066406 127.578125 807.46875 128.332031 C 806.925781 129.011719 806.152344 129.304688 804.90625 129.304688 C 803.660156 129.304688 802.886719 129.597656 802.347656 130.277344 C 801.824219 130.9375 801.03125 131.25 799.894531 131.25 C 798.570312 131.25 798.167969 131.457031 797.992188 132.222656 C 797.820312 132.960938 797.410156 133.195312 796.28125 133.195312 C 795.160156 133.195312 794.746094 133.429688 794.578125 134.167969 C 794.367188 135.085938 794.101562 135.214844 792.144531 135.332031 C 791.695312 135.359375 791.230469 135.710938 791.113281 136.113281 C 790.925781 136.757812 790.992188 136.757812 791.71875 136.113281 C 792.472656 135.4375 792.488281 135.445312 791.949219 136.230469 C 791.625 136.703125 790.984375 137.082031 790.519531 137.082031 C 790.039062 137.082031 789.585938 137.496094 789.457031 138.054688 C 789.289062 138.792969 788.875 139.027344 787.75 139.027344 C 786.625 139.027344 786.210938 139.261719 786.042969 140 C 785.921875 140.535156 785.460938 140.972656 785.015625 140.972656 C 784.496094 140.972656 784.210938 141.316406 784.210938 141.945312 C 784.210938 142.59375 783.929688 142.917969 783.359375 142.917969 C 782.792969 142.917969 782.507812 143.242188 782.507812 143.886719 C 782.507812 144.539062 782.222656 144.863281 781.652344 144.863281 C 781.085938 144.863281 780.800781 145.1875 780.800781 145.832031 C 780.800781 146.480469 780.515625 146.804688 779.949219 146.804688 C 779.375 146.804688 779.09375 147.128906 779.09375 147.777344 C 779.09375 148.425781 778.808594 148.75 778.238281 148.75 C 777.671875 148.75 777.386719 149.074219 777.386719 149.722656 C 777.386719 150.371094 777.101562 150.695312 776.53125 150.695312 C 775.964844 150.695312 775.679688 151.019531 775.679688 151.667969 C 775.679688 152.234375 775.394531 152.636719 775 152.636719 C 774.625 152.636719 774.222656 153.074219 774.097656 153.613281 C 773.902344 154.464844 773.503906 154.761719 772.675781 154.671875 C 772.550781 154.660156 772.414062 155.101562 772.378906 155.652344 C 772.339844 156.203125 771.917969 157.132812 771.433594 157.714844 C 770.953125 158.300781 770.558594 159.148438 770.558594 159.597656 C 770.558594 160.335938 770.078125 160.636719 769.171875 160.476562 C 769 160.441406 768.875 160.578125 768.902344 160.78125 C 769.15625 162.609375 768.761719 164.21875 768 164.449219 C 767.515625 164.589844 767.148438 165.109375 767.148438 165.644531 C 767.148438 166.164062 766.761719 166.980469 766.292969 167.464844 C 765.722656 168.054688 765.441406 168.960938 765.441406 170.214844 C 765.441406 171.929688 765.144531 172.335938 764.050781 172.140625 C 763.878906 172.109375 763.753906 172.246094 763.785156 172.449219 C 764.136719 174.996094 763.65625 177.917969 762.878906 177.917969 C 762.097656 177.917969 762.027344 178.242188 762.027344 181.804688 C 762.027344 185.542969 761.882812 185.964844 760.660156 185.757812 C 760.492188 185.734375 760.347656 193.582031 760.332031 203.203125 C 760.300781 220.445312 760.3125 220.695312 761.164062 220.695312 C 761.957031 220.695312 762.027344 221.003906 762.027344 224.582031 C 762.027344 228.148438 762.097656 228.472656 762.878906 228.472656 C 763.632812 228.472656 763.734375 228.796875 763.734375 231.191406 C 763.734375 233.503906 763.859375 233.949219 764.585938 234.164062 C 765.351562 234.390625 765.753906 236.058594 765.480469 237.867188 C 765.445312 238.085938 765.574219 238.15625 765.769531 238.019531 C 766.472656 237.523438 767.109375 238.507812 767.210938 240.242188 C 767.269531 241.21875 767.425781 242.007812 767.550781 241.992188 C 768.574219 241.882812 768.851562 242.273438 768.851562 243.832031 C 768.851562 245.167969 769.050781 245.636719 769.707031 245.832031 C 770.175781 245.972656 770.558594 246.410156 770.558594 246.800781 C 770.558594 247.199219 770.945312 247.636719 771.414062 247.777344 C 771.882812 247.917969 772.265625 248.410156 772.265625 248.871094 C 772.265625 249.332031 772.652344 250.105469 773.121094 250.589844 C 773.589844 251.074219 773.972656 251.984375 773.972656 252.609375 C 773.972656 253.425781 774.214844 253.75 774.828125 253.75 C 775.394531 253.75 775.679688 254.074219 775.679688 254.722656 C 775.679688 255.371094 775.964844 255.695312 776.53125 255.695312 C 777.101562 255.695312 777.386719 256.019531 777.386719 256.667969 C 777.386719 257.3125 777.671875 257.636719 778.238281 257.636719 C 778.808594 257.636719 779.09375 257.960938 779.09375 258.613281 C 779.09375 259.257812 779.375 259.582031 779.949219 259.582031 C 780.515625 259.582031 780.800781 259.90625 780.800781 260.554688 C 780.800781 261.203125 781.085938 261.527344 781.652344 261.527344 C 782.222656 261.527344 782.507812 261.851562 782.507812 262.5 C 782.507812 263.128906 782.792969 263.472656 783.3125 263.472656 C 783.753906 263.472656 784.210938 263.90625 784.339844 264.445312 C 784.507812 265.1875 784.917969 265.417969 786.09375 265.417969 C 787.34375 265.417969 787.628906 265.597656 787.628906 266.386719 C 787.628906 267.039062 787.910156 267.363281 788.480469 267.363281 C 789.046875 267.363281 789.332031 267.6875 789.332031 268.332031 C 789.332031 269.144531 789.617188 269.304688 791.039062 269.304688 C 792.464844 269.304688 792.746094 269.46875 792.746094 270.277344 C 792.746094 271.085938 793.03125 271.25 794.453125 271.25 C 795.875 271.25 796.160156 271.414062 796.160156 272.222656 C 796.160156 273.03125 796.445312 273.195312 797.867188 273.195312 C 799.289062 273.195312 799.574219 273.355469 799.574219 274.167969 C 799.574219 274.972656 799.855469 275.136719 801.230469 275.136719 C 802.527344 275.136719 802.9375 275.351562 803.109375 276.113281 C 803.300781 276.933594 803.691406 277.082031 805.671875 277.082031 C 807.648438 277.082031 808.039062 277.230469 808.230469 278.054688 C 808.429688 278.921875 808.8125 279.027344 811.855469 279.027344 C 814.585938 279.027344 815.371094 279.195312 815.839844 279.878906 C 816.382812 280.664062 816.367188 280.671875 815.609375 280 C 814.886719 279.351562 814.816406 279.351562 815.007812 280 C 815.234375 280.789062 852.539062 281.398438 852.429688 280.609375 C 852.230469 279.160156 852.585938 279.027344 856.746094 279.027344 C 860.726562 279.027344 861.011719 278.960938 861.011719 278.054688 C 861.011719 277.195312 861.296875 277.082031 863.507812 277.082031 C 865.460938 277.082031 866.167969 276.875 866.773438 276.113281 C 867.300781 275.445312 868.089844 275.136719 869.265625 275.136719 C 870.382812 275.136719 871.296875 274.808594 871.871094 274.191406 C 872.394531 273.628906 873.472656 273.199219 874.535156 273.128906 C 875.515625 273.0625 876.308594 272.886719 876.296875 272.738281 C 876.191406 271.539062 876.542969 271.25 878.078125 271.25 C 879.503906 271.25 879.789062 271.085938 879.789062 270.277344 C 879.789062 269.46875 880.070312 269.304688 881.492188 269.304688 C 882.914062 269.304688 883.199219 269.144531 883.199219 268.332031 C 883.199219 267.523438 883.484375 267.363281 884.90625 267.363281 C 886.328125 267.363281 886.613281 267.199219 886.613281 266.386719 C 886.613281 265.597656 886.898438 265.417969 888.144531 265.417969 C 889.320312 265.417969 889.734375 265.1875 889.902344 264.445312 C 890.027344 263.90625 890.484375 263.472656 890.929688 263.472656 C 891.710938 263.472656 891.734375 262.464844 891.734375 230.417969 L 891.734375 197.363281 L 850.773438 197.363281 L 850.773438 234.304688 L 849.238281 234.304688 C 848.066406 234.304688 847.65625 234.53125 847.484375 235.277344 C 847.285156 236.140625 846.902344 236.25 844.070312 236.25 C 841.238281 236.25 840.855469 236.359375 840.65625 237.222656 C 840.453125 238.109375 840.074219 238.195312 836.214844 238.195312 C 832.285156 238.195312 832 238.128906 832 237.222656 C 832 236.332031 831.714844 236.25 828.585938 236.25 C 825.457031 236.25 825.171875 236.167969 825.171875 235.277344 C 825.171875 234.46875 824.886719 234.304688 823.46875 234.304688 C 822.042969 234.304688 821.761719 234.144531 821.761719 233.332031 C 821.761719 232.636719 821.476562 232.363281 820.757812 232.363281 C 820.207031 232.363281 819.414062 231.925781 818.988281 231.386719 C 818.5625 230.855469 817.859375 230.417969 817.429688 230.417969 C 816.925781 230.417969 816.640625 230.066406 816.640625 229.445312 C 816.640625 228.796875 816.355469 228.472656 815.789062 228.472656 C 815.214844 228.472656 814.933594 228.148438 814.933594 227.5 C 814.933594 226.851562 814.648438 226.527344 814.078125 226.527344 C 813.386719 226.527344 813.226562 226.203125 813.226562 224.78125 C 813.226562 223.441406 813.027344 222.972656 812.371094 222.78125 C 811.902344 222.640625 811.519531 222.148438 811.519531 221.683594 C 811.519531 221.222656 811.136719 220.449219 810.667969 219.964844 C 810.0625 219.34375 809.8125 218.46875 809.8125 216.972656 C 809.8125 215.1875 809.683594 214.863281 808.960938 214.863281 C 808.199219 214.863281 807.609375 208.738281 808.054688 205.503906 C 808.085938 205.304688 807.960938 205.164062 807.789062 205.195312 C 806.683594 205.394531 806.398438 204.984375 806.398438 203.195312 C 806.398438 201.574219 806.542969 201.25 807.253906 201.25 C 808.050781 201.25 808.109375 200.925781 808.109375 196.222656 C 808.109375 191.808594 808.210938 191.085938 808.960938 190.3125 C 809.53125 189.722656 809.8125 188.816406 809.8125 187.566406 C 809.8125 185.851562 810.105469 185.441406 811.199219 185.636719 C 811.375 185.667969 811.496094 185.527344 811.46875 185.332031 C 811.199219 183.359375 811.59375 181.804688 812.371094 181.804688 C 812.945312 181.804688 813.226562 181.480469 813.226562 180.832031 C 813.226562 179.964844 813.671875 179.632812 814.613281 179.804688 C 814.789062 179.835938 814.910156 179.695312 814.882812 179.496094 C 814.734375 178.421875 815.023438 177.917969 815.789062 177.917969 C 816.355469 177.917969 816.640625 177.59375 816.640625 176.945312 C 816.640625 176.296875 816.925781 175.972656 817.492188 175.972656 C 818.0625 175.972656 818.347656 175.648438 818.347656 175 C 818.347656 174.070312 818.5625 173.960938 820.65625 173.832031 C 821.105469 173.808594 821.566406 173.457031 821.6875 173.054688 C 821.875 172.40625 821.808594 172.40625 821.082031 173.054688 C 820.328125 173.726562 820.3125 173.71875 820.851562 172.933594 C 821.171875 172.464844 821.835938 172.082031 822.316406 172.082031 C 822.800781 172.082031 823.59375 171.65625 824.078125 171.136719 C 824.695312 170.480469 825.722656 170.148438 827.488281 170.03125 C 829.238281 169.917969 830.082031 169.644531 830.226562 169.152344 C 830.40625 168.535156 830.324219 168.535156 829.617188 169.167969 C 828.863281 169.839844 828.84375 169.832031 829.386719 169.042969 C 830.347656 167.648438 843.949219 167.761719 843.949219 169.167969 C 843.949219 170.03125 844.230469 170.136719 846.507812 170.136719 C 848.898438 170.136719 849.25 170.335938 849.148438 171.621094 C 849.132812 171.769531 849.824219 171.941406 850.683594 172.007812 C 852.207031 172.125 853.070312 172.851562 852.632812 173.652344 C 852.511719 173.871094 852.574219 174.019531 852.769531 173.980469 C 854.472656 173.644531 855.890625 174.109375 855.890625 175 C 855.890625 175.648438 856.175781 175.972656 856.746094 175.972656 C 857.316406 175.972656 857.601562 176.296875 857.601562 176.945312 C 857.601562 177.59375 857.882812 177.917969 858.453125 177.917969 C 859.023438 177.917969 859.308594 178.242188 859.308594 178.886719 C 859.308594 179.539062 859.589844 179.863281 860.160156 179.863281 C 860.726562 179.863281 861.011719 180.1875 861.011719 180.832031 C 861.011719 181.480469 861.296875 181.804688 861.867188 181.804688 C 862.4375 181.804688 862.71875 182.128906 862.71875 182.777344 C 862.71875 183.640625 863.003906 183.75 865.214844 183.75 C 867.167969 183.75 867.875 183.539062 868.480469 182.777344 C 868.90625 182.242188 869.625 181.804688 870.078125 181.804688 C 870.546875 181.804688 871.003906 181.382812 871.128906 180.832031 C 871.253906 180.296875 871.710938 179.863281 872.15625 179.863281 C 872.675781 179.863281 872.960938 179.519531 872.960938 178.886719 C 872.960938 178.019531 873.402344 177.6875 874.347656 177.859375 C 874.523438 177.890625 874.644531 177.753906 874.617188 177.550781 C 874.46875 176.476562 874.757812 175.972656 875.519531 175.972656 C 876.089844 175.972656 876.371094 175.648438 876.371094 175 C 876.371094 174.351562 876.65625 174.027344 877.226562 174.027344 C 877.796875 174.027344 878.078125 173.703125 878.078125 173.054688 C 878.078125 172.40625 878.363281 172.082031 878.933594 172.082031 C 879.503906 172.082031 879.789062 171.757812 879.789062 171.113281 C 879.789062 170.5 880.070312 170.136719 880.554688 170.136719 C 880.976562 170.136719 882.070312 169.261719 882.988281 168.195312 C 883.976562 167.039062 885.050781 166.25 885.632812 166.25 C 886.328125 166.25 886.613281 165.96875 886.613281 165.277344 C 886.613281 164.628906 886.898438 164.304688 887.46875 164.304688 C 888.035156 164.304688 888.320312 163.980469 888.320312 163.332031 C 888.320312 162.6875 888.605469 162.363281 889.171875 162.363281 C 889.742188 162.363281 890.027344 162.039062 890.027344 161.386719 C 890.027344 160.742188 890.3125 160.417969 890.878906 160.417969 C 891.449219 160.417969 891.734375 160.09375 891.734375 159.445312 C 891.734375 158.796875 892.015625 158.472656 892.585938 158.472656 C 893.15625 158.472656 893.441406 158.148438 893.441406 157.5 C 893.441406 156.851562 893.722656 156.527344 894.292969 156.527344 C 895.054688 156.527344 895.148438 156.203125 895.148438 153.613281 C 895.148438 151.019531 895.054688 150.695312 894.292969 150.695312 C 893.722656 150.695312 893.441406 150.371094 893.441406 149.722656 C 893.441406 149.074219 893.15625 148.75 892.585938 148.75 C 892.015625 148.75 891.734375 148.425781 891.734375 147.777344 C 891.734375 147.128906 891.449219 146.804688 890.878906 146.804688 C 890.117188 146.804688 889.828125 146.300781 889.976562 145.226562 C 890.003906 145.027344 889.882812 144.886719 889.707031 144.917969 C 888.761719 145.089844 888.320312 144.761719 888.320312 143.886719 C 888.320312 143.195312 888.035156 142.917969 887.320312 142.917969 C 886.769531 142.917969 885.972656 142.480469 885.546875 141.945312 C 885.121094 141.410156 884.421875 140.972656 883.988281 140.972656 C 883.484375 140.972656 883.199219 140.621094 883.199219 140 C 883.199219 139.351562 882.914062 139.027344 882.347656 139.027344 C 881.777344 139.027344 881.492188 138.703125 881.492188 138.054688 C 881.492188 137.25 881.207031 137.082031 879.835938 137.082031 C 878.539062 137.082031 878.132812 136.875 877.957031 136.113281 C 877.828125 135.5625 877.375 135.136719 876.90625 135.136719 C 876.453125 135.136719 875.734375 134.699219 875.308594 134.167969 C 874.882812 133.632812 874.113281 133.195312 873.601562 133.195312 C 873.085938 133.195312 872.316406 132.757812 871.890625 132.222656 C 871.375 131.570312 870.578125 131.25 869.480469 131.25 C 868.003906 131.25 867.652344 130.945312 867.765625 129.75 C 867.78125 129.597656 866.703125 129.417969 865.371094 129.355469 C 863.1875 129.257812 862.066406 128.65625 862.519531 127.828125 C 862.609375 127.660156 861.492188 127.472656 860.035156 127.414062 C 858.214844 127.339844 857.1875 127.058594 856.746094 126.511719 C 856.160156 125.78125 856.175781 125.773438 856.921875 126.414062 C 857.636719 127.03125 857.710938 127.03125 857.527344 126.386719 C 857.40625 125.988281 856.851562 125.640625 856.28125 125.621094 C 855.714844 125.601562 853.113281 125.546875 850.503906 125.5 C 846.101562 125.421875 845.738281 125.34375 845.523438 124.417969 C 845.300781 123.453125 824.523438 122.917969 823.699219 123.855469 M 2.839844 127.6875 C 2.683594 127.867188 2.558594 161.984375 2.5625 203.503906 L 2.570312 278.996094 L 48.640625 279.042969 L 48.640625 224.582031 L 86.1875 224.582031 L 86.234375 251.441406 C 86.265625 266.214844 86.265625 278.453125 86.242188 278.648438 C 86.214844 278.839844 96.5625 279.003906 109.234375 279.019531 L 132.265625 279.042969 L 132.265625 127.351562 L 109.332031 127.480469 L 86.398438 127.605469 L 86.289062 153.730469 L 86.179688 179.863281 L 48.640625 179.863281 L 48.640625 127.363281 L 25.882812 127.363281 C 13.367188 127.363281 3 127.507812 2.839844 127.6875 M 154.558594 203.074219 L 154.667969 278.785156 L 210.027344 278.910156 L 265.386719 279.03125 L 265.386719 236.25 L 200.53125 236.25 L 200.53125 220.703125 L 227.734375 220.574219 L 254.933594 220.449219 L 255.046875 201.128906 L 255.15625 181.804688 L 200.53125 181.804688 L 200.53125 168.195312 L 263.679688 168.195312 L 263.679688 127.363281 L 154.449219 127.363281 L 154.558594 203.074219 M 284.453125 127.675781 C 284.289062 127.863281 284.15625 161.984375 284.164062 203.503906 L 284.171875 278.996094 L 307.207031 279.019531 L 330.238281 279.042969 L 330.238281 242.082031 L 340.480469 242.082031 L 340.480469 243.832031 C 340.480469 245.167969 340.679688 245.636719 341.332031 245.832031 C 341.804688 245.972656 342.1875 246.410156 342.1875 246.800781 C 342.1875 247.199219 342.570312 247.636719 343.039062 247.777344 C 343.6875 247.96875 343.890625 248.4375 343.890625 249.71875 C 343.890625 250.972656 344.101562 251.472656 344.707031 251.652344 C 345.15625 251.785156 345.617188 252.3125 345.734375 252.824219 C 345.851562 253.332031 346.253906 253.75 346.625 253.75 C 347.125 253.75 347.308594 254.222656 347.308594 255.496094 C 347.308594 256.835938 347.507812 257.300781 348.160156 257.496094 C 348.632812 257.636719 349.011719 258.160156 349.011719 258.667969 C 349.011719 259.257812 349.316406 259.582031 349.867188 259.582031 C 350.414062 259.582031 350.71875 259.90625 350.71875 260.480469 C 350.71875 260.972656 351.105469 261.773438 351.574219 262.257812 C 352.042969 262.742188 352.425781 263.648438 352.425781 264.277344 C 352.425781 265.09375 352.667969 265.417969 353.28125 265.417969 C 353.824219 265.417969 354.132812 265.742188 354.132812 266.316406 C 354.132812 266.808594 354.515625 267.605469 354.988281 268.089844 C 355.457031 268.574219 355.839844 269.484375 355.839844 270.109375 C 355.839844 270.925781 356.082031 271.25 356.691406 271.25 C 357.210938 271.25 357.546875 271.574219 357.546875 272.070312 C 357.546875 272.519531 357.941406 273.367188 358.421875 273.949219 C 358.90625 274.535156 359.328125 275.464844 359.363281 276.015625 C 359.402344 276.5625 359.535156 277.003906 359.660156 276.992188 C 360.574219 276.898438 360.960938 277.214844 360.960938 278.054688 C 360.960938 279.015625 361.246094 279.027344 385.707031 279.027344 L 410.453125 279.027344 L 410.453125 276.113281 C 410.453125 273.519531 410.359375 273.195312 409.601562 273.195312 C 409.054688 273.195312 408.746094 272.871094 408.746094 272.296875 C 408.746094 271.804688 408.363281 271.003906 407.890625 270.519531 C 407.425781 270.035156 407.039062 269.125 407.039062 268.503906 C 407.039062 267.6875 406.796875 267.363281 406.1875 267.363281 C 405.640625 267.363281 405.332031 267.039062 405.332031 266.464844 C 405.332031 265.972656 404.949219 265.171875 404.480469 264.6875 C 404.011719 264.203125 403.628906 263.292969 403.628906 262.667969 C 403.628906 261.851562 403.382812 261.527344 402.773438 261.527344 C 401.957031 261.527344 401.859375 261.28125 401.75 258.898438 C 401.726562 258.382812 401.417969 257.859375 401.066406 257.726562 C 400.503906 257.507812 400.5 257.59375 401.042969 258.410156 C 401.617188 259.28125 401.609375 259.289062 400.917969 258.566406 C 400.507812 258.144531 400.140625 257.339844 400.101562 256.78125 C 400.066406 256.21875 399.921875 255.839844 399.785156 255.941406 C 399.171875 256.371094 398.40625 255.195312 398.339844 253.722656 C 398.300781 252.800781 398.003906 252.019531 397.640625 251.882812 C 397.09375 251.675781 397.089844 251.765625 397.628906 252.578125 C 398.207031 253.445312 398.199219 253.457031 397.5 252.734375 C 397.09375 252.3125 396.726562 251.507812 396.691406 250.945312 C 396.652344 250.386719 396.519531 249.9375 396.390625 249.953125 C 395.480469 250.046875 395.09375 249.730469 395.09375 248.886719 C 395.09375 248.242188 394.808594 247.917969 394.238281 247.917969 C 393.527344 247.917969 393.386719 247.59375 393.386719 245.972656 C 393.386719 244.351562 393.246094 244.027344 392.53125 244.027344 C 391.964844 244.027344 391.679688 243.703125 391.679688 243.054688 C 391.679688 242.40625 391.394531 242.082031 390.828125 242.082031 C 390.117188 242.082031 389.972656 241.757812 389.972656 240.136719 C 389.972656 238.558594 389.824219 238.195312 389.167969 238.195312 C 388.726562 238.195312 388.265625 237.761719 388.140625 237.222656 C 388.019531 236.6875 387.613281 236.25 387.242188 236.25 C 386.585938 236.25 386.28125 234.371094 386.5 231.671875 C 386.574219 230.75 386.5625 230.75 385.609375 231.671875 L 384.640625 232.605469 L 385.453125 231.511719 C 385.898438 230.910156 386.636719 230.417969 387.09375 230.417969 C 387.5625 230.417969 388.015625 229.992188 388.140625 229.445312 C 388.265625 228.910156 388.699219 228.472656 389.105469 228.472656 C 389.507812 228.472656 390.1875 228.035156 390.613281 227.5 C 391.039062 226.964844 391.835938 226.527344 392.386719 226.527344 C 393.101562 226.527344 393.386719 226.25 393.386719 225.554688 C 393.386719 224.671875 393.84375 224.347656 394.804688 224.535156 C 394.996094 224.578125 395.042969 224.398438 394.90625 224.148438 C 394.582031 223.550781 395.894531 222.058594 396.417969 222.429688 C 396.640625 222.582031 396.792969 222.53125 396.757812 222.3125 C 396.59375 221.214844 396.878906 220.695312 397.652344 220.695312 C 398.265625 220.695312 398.507812 220.371094 398.507812 219.554688 C 398.507812 218.929688 398.890625 218.019531 399.359375 217.535156 C 399.828125 217.050781 400.210938 216.25 400.210938 215.757812 C 400.210938 215.1875 400.523438 214.863281 401.066406 214.863281 C 401.777344 214.863281 401.921875 214.539062 401.921875 212.917969 C 401.921875 211.296875 402.0625 210.972656 402.773438 210.972656 C 403.484375 210.972656 403.628906 210.648438 403.628906 209.027344 C 403.628906 207.40625 403.769531 207.082031 404.480469 207.082031 C 405.238281 207.082031 405.332031 206.757812 405.332031 204.167969 C 405.332031 201.40625 405.527344 200.984375 406.707031 201.1875 C 406.878906 201.21875 407.015625 193.808594 407.015625 184.722656 C 407.015625 175.636719 406.878906 168.226562 406.707031 168.257812 C 405.527344 168.460938 405.332031 168.039062 405.332031 165.277344 C 405.332031 162.6875 405.238281 162.363281 404.480469 162.363281 C 403.773438 162.363281 403.628906 162.039062 403.628906 160.492188 C 403.628906 159.242188 403.347656 158.332031 402.773438 157.742188 C 402.304688 157.257812 401.921875 156.351562 401.921875 155.722656 C 401.921875 154.90625 401.675781 154.582031 401.066406 154.582031 C 400.523438 154.582031 400.210938 154.257812 400.210938 153.683594 C 400.210938 153.191406 399.828125 152.394531 399.359375 151.910156 C 398.890625 151.425781 398.507812 150.515625 398.507812 149.890625 C 398.507812 149.074219 398.265625 148.75 397.652344 148.75 C 397.085938 148.75 396.800781 148.425781 396.800781 147.777344 C 396.800781 147.128906 396.515625 146.804688 395.949219 146.804688 C 395.375 146.804688 395.09375 146.480469 395.09375 145.832031 C 395.09375 145.1875 394.808594 144.863281 394.238281 144.863281 C 393.671875 144.863281 393.386719 144.539062 393.386719 143.886719 C 393.386719 143.242188 393.101562 142.917969 392.53125 142.917969 C 391.964844 142.917969 391.679688 142.59375 391.679688 141.945312 C 391.679688 141.246094 391.394531 140.972656 390.667969 140.972656 C 390.109375 140.972656 389.390625 140.589844 389.066406 140.121094 C 388.523438 139.335938 388.542969 139.328125 389.296875 140 C 390.003906 140.632812 390.085938 140.636719 389.902344 140.011719 C 389.785156 139.601562 389.097656 139.261719 388.289062 139.214844 C 386.914062 139.136719 385.972656 138.257812 386.40625 137.460938 C 386.527344 137.238281 386.464844 137.089844 386.269531 137.128906 C 384.566406 137.464844 383.148438 137.003906 383.148438 136.113281 C 383.148438 135.300781 382.863281 135.136719 381.441406 135.136719 C 380.015625 135.136719 379.734375 134.976562 379.734375 134.167969 C 379.734375 133.363281 379.449219 133.195312 378.074219 133.195312 C 376.777344 133.195312 376.371094 132.984375 376.195312 132.222656 C 376.003906 131.386719 375.613281 131.25 373.425781 131.25 C 371.507812 131.25 370.734375 131.039062 370.292969 130.398438 C 369.75 129.613281 369.769531 129.605469 370.523438 130.277344 C 371.25 130.925781 371.316406 130.925781 371.128906 130.277344 C 370.960938 129.710938 369.984375 129.515625 366.683594 129.394531 C 363.445312 129.277344 362.304688 129.058594 361.8125 128.449219 C 361.230469 127.726562 361.246094 127.71875 361.988281 128.359375 C 362.707031 128.976562 362.78125 128.972656 362.59375 128.332031 C 362.367188 127.558594 285.128906 126.90625 284.453125 127.675781 M 485.832031 127.683594 C 485.675781 127.863281 485.546875 137.488281 485.546875 149.074219 L 485.546875 170.136719 L 523.09375 170.136719 L 523.09375 279.042969 L 546.128906 279.019531 C 558.796875 279.003906 569.144531 278.839844 569.117188 278.648438 C 569.09375 278.453125 569.09375 253.964844 569.125 224.21875 L 569.171875 170.136719 L 606.730469 170.136719 L 606.617188 148.871094 L 606.507812 127.605469 L 546.3125 127.480469 C 513.207031 127.414062 485.992188 127.503906 485.832031 127.683594 M 656.339844 128.332031 C 656.132812 129.21875 655.691406 129.519531 654.828125 129.363281 C 654.652344 129.332031 654.53125 129.472656 654.554688 129.667969 C 654.808594 131.5 654.414062 133.109375 653.652344 133.335938 C 652.980469 133.535156 652.800781 133.996094 652.800781 135.503906 C 652.800781 136.800781 652.527344 137.703125 651.949219 138.300781 C 651.375 138.890625 651.09375 139.796875 651.09375 141.046875 C 651.09375 142.59375 650.945312 142.917969 650.238281 142.917969 C 649.527344 142.917969 649.386719 143.242188 649.386719 144.863281 C 649.386719 146.480469 649.246094 146.804688 648.53125 146.804688 C 647.824219 146.804688 647.679688 147.128906 647.679688 148.695312 C 647.679688 150.171875 647.496094 150.636719 646.828125 150.835938 C 646.101562 151.050781 645.972656 151.496094 645.972656 153.808594 C 645.972656 156.203125 645.871094 156.527344 645.121094 156.527344 C 644.410156 156.527344 644.265625 156.851562 644.265625 158.472656 C 644.265625 160.261719 643.984375 160.671875 642.878906 160.476562 C 642.703125 160.441406 642.582031 160.578125 642.609375 160.78125 C 642.863281 162.609375 642.46875 164.21875 641.707031 164.449219 C 641.035156 164.644531 640.851562 165.109375 640.851562 166.613281 C 640.851562 167.914062 640.578125 168.8125 640 169.410156 C 639.429688 169.996094 639.148438 170.90625 639.148438 172.160156 C 639.148438 173.703125 639 174.027344 638.292969 174.027344 C 637.582031 174.027344 637.441406 174.351562 637.441406 175.972656 C 637.441406 177.59375 637.296875 177.917969 636.585938 177.917969 C 635.882812 177.917969 635.734375 178.242188 635.734375 179.804688 C 635.734375 181.28125 635.546875 181.746094 634.878906 181.949219 C 634.15625 182.164062 634.027344 182.609375 634.027344 184.917969 C 634.027344 187.3125 633.925781 187.636719 633.171875 187.636719 C 632.464844 187.636719 632.320312 187.960938 632.320312 189.582031 C 632.320312 191.375 632.035156 191.78125 630.933594 191.585938 C 630.757812 191.554688 630.636719 191.691406 630.664062 191.894531 C 630.917969 193.722656 630.519531 195.332031 629.761719 195.558594 C 629.089844 195.757812 628.90625 196.222656 628.90625 197.726562 C 628.90625 199.023438 628.632812 199.925781 628.050781 200.519531 C 627.480469 201.109375 627.199219 202.015625 627.199219 203.269531 C 627.199219 204.8125 627.050781 205.136719 626.347656 205.136719 C 625.636719 205.136719 625.492188 205.460938 625.492188 207.082031 C 625.492188 208.703125 625.351562 209.027344 624.640625 209.027344 C 623.917969 209.027344 623.789062 209.351562 623.789062 211.140625 C 623.789062 212.632812 623.535156 213.507812 622.933594 214.132812 C 622.363281 214.722656 622.078125 215.628906 622.078125 216.878906 C 622.078125 218.425781 621.929688 218.75 621.226562 218.75 C 620.515625 218.75 620.371094 219.074219 620.371094 220.695312 C 620.371094 222.484375 620.089844 222.894531 618.988281 222.695312 C 618.8125 222.664062 618.691406 222.804688 618.714844 223.003906 C 618.96875 224.835938 618.574219 226.441406 617.8125 226.667969 C 617.140625 226.871094 616.960938 227.332031 616.960938 228.839844 C 616.960938 230.132812 616.6875 231.035156 616.109375 231.632812 C 615.535156 232.222656 615.253906 233.128906 615.253906 234.378906 C 615.253906 235.925781 615.105469 236.25 614.398438 236.25 C 613.6875 236.25 613.546875 236.574219 613.546875 238.195312 C 613.546875 239.8125 613.402344 240.136719 612.691406 240.136719 C 611.96875 240.136719 611.839844 240.460938 611.839844 242.253906 C 611.839844 243.746094 611.589844 244.621094 610.988281 245.242188 C 610.414062 245.832031 610.132812 246.742188 610.132812 247.992188 C 610.132812 249.539062 609.988281 249.863281 609.28125 249.863281 C 608.566406 249.863281 608.425781 250.1875 608.425781 251.804688 C 608.425781 253.59375 608.144531 254.007812 607.039062 253.808594 C 606.863281 253.777344 606.742188 253.914062 606.769531 254.113281 C 607.023438 255.941406 606.628906 257.554688 605.867188 257.78125 C 605.195312 257.980469 605.011719 258.441406 605.011719 259.949219 C 605.011719 261.246094 604.738281 262.148438 604.160156 262.742188 C 603.589844 263.332031 603.308594 264.242188 603.308594 265.492188 C 603.308594 267.039062 603.160156 267.363281 602.453125 267.363281 C 601.742188 267.363281 601.601562 267.6875 601.601562 269.304688 C 601.601562 270.925781 601.457031 271.25 600.746094 271.25 C 599.964844 271.25 599.890625 271.574219 599.890625 275.144531 L 599.890625 279.035156 L 647.46875 278.785156 L 647.59375 276.769531 C 647.675781 275.539062 648.046875 274.425781 648.554688 273.902344 C 649.105469 273.335938 649.386719 272.410156 649.386719 271.175781 C 649.386719 269.628906 649.535156 269.304688 650.238281 269.304688 C 650.996094 269.304688 651.09375 268.980469 651.09375 266.386719 C 651.09375 263.796875 651.1875 263.472656 651.949219 263.472656 C 652.652344 263.472656 652.800781 263.148438 652.800781 261.585938 C 652.800781 260.105469 652.984375 259.640625 653.652344 259.441406 C 654.378906 259.226562 654.507812 258.777344 654.507812 256.46875 C 654.507812 253.898438 654.71875 253.480469 655.890625 253.691406 C 656.070312 253.722656 656.1875 253.585938 656.164062 253.386719 C 655.945312 251.808594 655.996094 251.804688 679.253906 251.804688 L 702.292969 251.804688 L 702.292969 254.527344 C 702.292969 256.835938 702.421875 257.28125 703.148438 257.496094 C 703.808594 257.695312 704 258.160156 704 259.566406 C 704 260.757812 704.292969 261.675781 704.851562 262.257812 C 705.457031 262.878906 705.707031 263.753906 705.707031 265.246094 C 705.707031 267.039062 705.839844 267.363281 706.558594 267.363281 C 707.265625 267.363281 707.414062 267.6875 707.414062 269.230469 C 707.414062 270.484375 707.695312 271.390625 708.265625 271.980469 C 708.871094 272.601562 709.121094 273.476562 709.121094 274.972656 C 709.121094 276.757812 709.25 277.082031 709.972656 277.082031 C 710.734375 277.082031 711.023438 277.582031 710.882812 278.648438 C 710.855469 278.839844 721.585938 279.007812 734.726562 279.019531 L 758.613281 279.042969 L 758.613281 276.117188 C 758.613281 273.519531 758.519531 273.195312 757.761719 273.195312 C 757.007812 273.195312 756.90625 272.871094 756.90625 270.472656 C 756.90625 268.164062 756.78125 267.71875 756.050781 267.503906 C 755.292969 267.273438 754.894531 265.667969 755.148438 263.835938 C 755.175781 263.636719 755.054688 263.496094 754.878906 263.53125 C 753.777344 263.726562 753.492188 263.316406 753.492188 261.527344 C 753.492188 259.90625 753.351562 259.582031 752.640625 259.582031 C 751.933594 259.582031 751.789062 259.257812 751.789062 257.714844 C 751.789062 256.460938 751.507812 255.554688 750.933594 254.964844 C 750.355469 254.367188 750.078125 253.46875 750.078125 252.171875 C 750.078125 250.664062 749.898438 250.203125 749.226562 250.003906 C 748.464844 249.773438 748.070312 248.167969 748.324219 246.335938 C 748.347656 246.136719 748.230469 245.996094 748.050781 246.03125 C 746.960938 246.226562 746.667969 245.816406 746.667969 244.101562 C 746.667969 242.851562 746.386719 241.941406 745.8125 241.355469 C 745.234375 240.757812 744.960938 239.859375 744.960938 238.558594 C 744.960938 237.054688 744.777344 236.589844 744.109375 236.390625 C 743.34375 236.164062 742.949219 234.554688 743.203125 232.726562 C 743.230469 232.527344 743.109375 232.386719 742.933594 232.417969 C 741.832031 232.617188 741.546875 232.207031 741.546875 230.417969 C 741.546875 228.796875 741.402344 228.472656 740.691406 228.472656 C 739.988281 228.472656 739.839844 228.148438 739.839844 226.601562 C 739.839844 225.351562 739.558594 224.441406 738.988281 223.855469 C 738.410156 223.257812 738.132812 222.359375 738.132812 221.058594 C 738.132812 219.554688 737.949219 219.089844 737.28125 218.890625 C 736.519531 218.664062 736.121094 217.054688 736.375 215.226562 C 736.40625 215.027344 736.28125 214.886719 736.109375 214.917969 C 735.015625 215.117188 734.71875 214.707031 734.71875 212.992188 C 734.71875 211.742188 734.4375 210.832031 733.867188 210.242188 C 733.289062 209.648438 733.011719 208.746094 733.011719 207.449219 C 733.011719 205.941406 732.832031 205.480469 732.160156 205.28125 C 731.398438 205.054688 731.003906 203.441406 731.257812 201.613281 C 731.285156 201.414062 731.160156 201.277344 730.988281 201.308594 C 729.882812 201.507812 729.601562 201.09375 729.601562 199.304688 C 729.601562 197.6875 729.457031 197.363281 728.746094 197.363281 C 728.039062 197.363281 727.890625 197.039062 727.890625 195.492188 C 727.890625 194.242188 727.609375 193.332031 727.039062 192.742188 C 726.460938 192.148438 726.1875 191.246094 726.1875 189.949219 C 726.1875 188.441406 726.003906 187.980469 725.332031 187.78125 C 724.664062 187.578125 724.480469 187.117188 724.480469 185.636719 C 724.480469 184.074219 724.335938 183.75 723.628906 183.75 C 722.921875 183.75 722.773438 183.425781 722.773438 181.878906 C 722.773438 180.628906 722.492188 179.722656 721.921875 179.132812 C 721.339844 178.535156 721.066406 177.632812 721.066406 176.339844 C 721.066406 174.832031 720.882812 174.371094 720.210938 174.167969 C 719.453125 173.941406 719.054688 172.335938 719.308594 170.503906 C 719.335938 170.304688 719.214844 170.164062 719.039062 170.195312 C 717.9375 170.394531 717.652344 169.984375 717.652344 168.195312 C 717.652344 166.574219 717.511719 166.25 716.800781 166.25 C 716.09375 166.25 715.949219 165.925781 715.949219 164.378906 C 715.949219 163.128906 715.664062 162.222656 715.09375 161.632812 C 714.515625 161.035156 714.238281 160.132812 714.238281 158.839844 C 714.238281 157.332031 714.058594 156.871094 713.386719 156.667969 C 712.71875 156.46875 712.53125 156.007812 712.53125 154.527344 C 712.53125 152.960938 712.386719 152.636719 711.679688 152.636719 C 710.972656 152.636719 710.828125 152.3125 710.828125 150.769531 C 710.828125 149.515625 710.546875 148.609375 709.972656 148.019531 C 709.394531 147.425781 709.121094 146.523438 709.121094 145.226562 C 709.121094 143.722656 708.9375 143.257812 708.265625 143.058594 C 707.503906 142.832031 707.109375 141.222656 707.363281 139.394531 C 707.390625 139.191406 707.269531 139.054688 707.09375 139.085938 C 705.992188 139.28125 705.707031 138.875 705.707031 137.082031 C 705.707031 135.460938 705.5625 135.136719 704.851562 135.136719 C 704.148438 135.136719 704 134.8125 704 133.269531 C 704 132.015625 703.71875 131.109375 703.148438 130.519531 C 702.675781 130.035156 702.292969 129.125 702.292969 128.503906 L 702.292969 127.363281 L 679.425781 127.363281 C 656.917969 127.363281 656.554688 127.375 656.339844 128.332031 M 912.492188 127.6875 C 912.339844 127.867188 912.210938 161.992188 912.214844 203.519531 L 912.222656 279.019531 L 1021.421875 279.019531 L 1021.421875 257.636719 C 1021.421875 245.878906 1021.28125 236.28125 1021.109375 236.3125 C 1020.941406 236.339844 1006.734375 236.339844 989.546875 236.308594 L 958.292969 236.25 L 958.292969 220.695312 L 985.28125 220.636719 C 1000.121094 220.605469 1012.402344 220.601562 1012.570312 220.632812 C 1012.742188 220.660156 1012.835938 211.992188 1012.789062 201.367188 L 1012.691406 182.050781 L 985.492188 181.925781 L 958.292969 181.796875 L 958.292969 168.195312 L 1019.734375 168.195312 L 1019.734375 127.363281 L 966.257812 127.363281 C 936.847656 127.363281 912.652344 127.507812 912.492188 127.6875 M 352.425781 171.113281 C 352.425781 171.921875 352.710938 172.082031 354.132812 172.082031 C 355.554688 172.082031 355.839844 172.246094 355.839844 173.054688 C 355.839844 173.703125 356.125 174.027344 356.691406 174.027344 C 357.507812 174.027344 357.605469 174.273438 357.714844 176.660156 C 357.738281 177.171875 358.046875 177.699219 358.398438 177.832031 C 358.96875 178.046875 358.96875 177.972656 358.398438 177.144531 C 357.808594 176.285156 357.816406 176.265625 358.507812 176.882812 C 359.015625 177.335938 359.253906 178.230469 359.253906 179.679688 C 359.253906 181.480469 359.382812 181.804688 360.109375 181.804688 C 360.863281 181.804688 360.960938 182.128906 360.960938 184.664062 C 360.960938 187.117188 360.835938 187.5625 360.109375 187.78125 C 359.378906 187.996094 359.253906 188.441406 359.253906 190.753906 C 359.253906 193.148438 359.152344 193.472656 358.398438 193.472656 C 357.832031 193.472656 357.546875 193.796875 357.546875 194.445312 C 357.546875 195.09375 357.261719 195.417969 356.691406 195.417969 C 356.125 195.417969 355.839844 195.742188 355.839844 196.386719 C 355.839844 197.273438 354.476562 197.730469 352.746094 197.417969 C 352.570312 197.386719 352.449219 197.527344 352.476562 197.726562 C 352.691406 199.269531 352.429688 199.304688 341.332031 199.304688 L 330.238281 199.304688 L 330.238281 170.136719 L 341.332031 170.136719 C 352.144531 170.136719 352.425781 170.164062 352.425781 171.113281 M 680.109375 189.414062 C 680.109375 191.203125 680.238281 191.527344 680.960938 191.527344 C 681.667969 191.527344 681.8125 191.851562 681.8125 193.398438 C 681.8125 194.648438 682.09375 195.558594 682.667969 196.144531 C 683.273438 196.765625 683.519531 197.640625 683.519531 199.136719 C 683.519531 200.925781 683.652344 201.25 684.371094 201.25 C 685.125 201.25 685.226562 201.574219 685.226562 203.96875 C 685.226562 206.277344 685.355469 206.726562 686.078125 206.941406 C 686.75 207.140625 686.933594 207.605469 686.933594 209.085938 C 686.933594 210.648438 687.082031 210.972656 687.789062 210.972656 C 688.355469 210.972656 688.640625 211.296875 688.640625 211.945312 C 688.640625 212.886719 688.355469 212.917969 679.253906 212.917969 L 669.867188 212.917969 L 669.867188 210.804688 C 669.867188 209.308594 670.117188 208.433594 670.71875 207.8125 C 671.289062 207.222656 671.574219 206.316406 671.574219 205.066406 C 671.574219 203.386719 671.835938 202.992188 672.878906 203.105469 C 673.007812 203.121094 673.164062 202.21875 673.222656 201.101562 C 673.285156 199.890625 673.664062 198.660156 674.15625 198.0625 C 674.660156 197.453125 674.988281 196.371094 674.988281 195.320312 C 674.988281 193.992188 675.1875 193.527344 675.839844 193.332031 C 676.566406 193.117188 676.691406 192.667969 676.691406 190.359375 C 676.691406 187.507812 676.945312 187.246094 679.253906 187.628906 C 679.738281 187.710938 679.6875 187.464844 679.039062 186.59375 L 678.1875 185.449219 L 679.148438 186.378906 C 679.871094 187.074219 680.109375 187.824219 680.109375 189.414062 "/>
<path style=" stroke:none;fill-rule:evenodd;fill:rgb(95.686275%,36.078432%,17.254902%);fill-opacity:1;" d="M 425.8125 9.71875 C 425.8125 10.667969 425.542969 10.695312 416.425781 10.695312 C 407.324219 10.695312 407.039062 10.722656 407.039062 11.667969 C 407.039062 12.585938 406.753906 12.636719 401.921875 12.636719 C 397.085938 12.636719 396.800781 12.691406 396.800781 13.613281 C 396.800781 14.515625 396.515625 14.582031 392.707031 14.582031 C 388.972656 14.582031 388.59375 14.667969 388.390625 15.554688 C 388.199219 16.378906 387.808594 16.527344 385.832031 16.527344 C 383.851562 16.527344 383.460938 16.675781 383.269531 17.5 C 383.113281 18.1875 382.6875 18.472656 381.820312 18.472656 C 381.054688 18.472656 380.394531 18.839844 380.058594 19.445312 C 379.769531 19.980469 379.191406 20.417969 378.777344 20.417969 C 378.320312 20.417969 378.027344 20.785156 378.027344 21.359375 C 378.027344 22.097656 377.679688 22.335938 376.425781 22.453125 C 374.921875 22.59375 374.820312 22.710938 374.695312 24.378906 C 374.605469 25.652344 374.332031 26.222656 373.738281 26.398438 C 372.4375 26.785156 372.460938 37.917969 373.761719 37.917969 C 374.328125 37.917969 374.613281 38.242188 374.613281 38.886719 C 374.613281 39.699219 374.898438 39.863281 376.320312 39.863281 C 377.742188 39.863281 378.027344 40.023438 378.027344 40.832031 C 378.027344 41.777344 378.3125 41.804688 387.308594 41.804688 C 396.132812 41.804688 396.621094 41.855469 397.128906 42.777344 C 397.632812 43.703125 398.125 43.75 407.046875 43.75 C 416.328125 43.75 416.425781 43.761719 415.898438 44.722656 C 415.378906 45.675781 414.90625 45.695312 392.605469 45.695312 C 370.199219 45.695312 369.835938 45.710938 369.617188 46.667969 C 369.40625 47.578125 369.035156 47.636719 363.472656 47.636719 C 357.832031 47.636719 357.546875 47.683594 357.546875 48.613281 C 357.546875 49.527344 357.261719 49.582031 352.425781 49.582031 C 347.589844 49.582031 347.308594 49.640625 347.308594 50.554688 C 347.308594 51.445312 347.023438 51.527344 343.890625 51.527344 C 340.765625 51.527344 340.480469 51.609375 340.480469 52.5 C 340.480469 53.378906 340.195312 53.472656 337.496094 53.472656 C 334.976562 53.472656 334.429688 53.621094 333.980469 54.445312 C 333.554688 55.222656 332.988281 55.417969 331.164062 55.417969 C 329.238281 55.417969 328.84375 55.566406 328.65625 56.386719 C 328.5 57.078125 328.074219 57.363281 327.207031 57.363281 C 326.445312 57.363281 325.78125 57.726562 325.449219 58.332031 C 325.152344 58.867188 324.578125 59.304688 324.164062 59.304688 C 323.703125 59.304688 323.414062 59.671875 323.414062 60.25 C 323.414062 60.988281 323.066406 61.222656 321.8125 61.34375 C 320.308594 61.484375 320.203125 61.601562 320.085938 63.265625 C 319.988281 64.539062 319.722656 65.109375 319.125 65.285156 C 317.855469 65.664062 317.878906 70.972656 319.148438 70.972656 C 319.839844 70.972656 320 71.296875 320 72.71875 C 320 74.058594 320.199219 74.527344 320.851562 74.71875 C 321.324219 74.863281 321.707031 75.382812 321.707031 75.890625 C 321.707031 76.757812 322.183594 76.804688 331.09375 76.804688 C 340.195312 76.804688 340.480469 76.777344 340.480469 75.832031 C 340.480469 74.941406 340.765625 74.863281 343.890625 74.863281 C 347.023438 74.863281 347.308594 74.78125 347.308594 73.886719 C 347.308594 72.980469 347.589844 72.917969 351.574219 72.917969 C 355.554688 72.917969 355.839844 72.851562 355.839844 71.945312 C 355.839844 71 356.125 70.972656 365.226562 70.972656 C 374.328125 70.972656 374.613281 71 374.613281 71.945312 C 374.613281 72.75 374.898438 72.917969 376.269531 72.917969 C 377.570312 72.917969 377.976562 73.125 378.152344 73.886719 C 378.320312 74.632812 378.730469 74.863281 379.90625 74.863281 C 381.15625 74.863281 381.441406 75.042969 381.441406 75.832031 C 381.441406 76.460938 381.722656 76.804688 382.242188 76.804688 C 382.6875 76.804688 383.148438 77.238281 383.269531 77.777344 C 383.488281 78.726562 383.28125 78.75 375.214844 78.75 C 367.402344 78.75 366.910156 78.804688 366.40625 79.722656 C 365.976562 80.511719 365.410156 80.695312 363.417969 80.695312 C 361.246094 80.695312 360.960938 80.804688 360.960938 81.667969 C 360.960938 82.523438 360.675781 82.636719 358.574219 82.636719 C 356.546875 82.636719 356.152344 82.785156 355.960938 83.613281 C 355.839844 84.148438 355.382812 84.582031 354.9375 84.582031 C 354.417969 84.582031 354.132812 84.925781 354.132812 85.554688 C 354.132812 86.367188 353.847656 86.527344 352.425781 86.527344 C 351.039062 86.527344 350.71875 86.699219 350.71875 87.445312 C 350.71875 87.949219 350.339844 88.472656 349.867188 88.613281 C 349.394531 88.753906 349.011719 89.214844 349.011719 89.640625 C 349.011719 90.09375 348.65625 90.417969 348.160156 90.417969 C 347.375 90.417969 347.308594 90.742188 347.308594 94.304688 L 347.308594 98.195312 L 355.792969 98.195312 C 363.914062 98.195312 364.28125 98.234375 364.496094 99.167969 C 364.710938 100.101562 365.078125 100.136719 373.933594 100.136719 C 382.863281 100.136719 383.148438 100.171875 383.148438 101.113281 C 383.148438 102 383.433594 102.082031 386.457031 102.082031 C 389.308594 102.082031 389.84375 102.21875 390.300781 103.054688 C 390.714844 103.8125 391.296875 104.027344 392.914062 104.027344 C 394.632812 104.027344 395.03125 104.195312 395.21875 105 C 395.40625 105.820312 395.800781 105.972656 397.722656 105.972656 C 399.546875 105.972656 400.113281 106.167969 400.539062 106.945312 C 400.953125 107.699219 401.535156 107.917969 403.152344 107.917969 C 404.875 107.917969 405.269531 108.085938 405.457031 108.886719 C 405.625 109.632812 406.039062 109.863281 407.214844 109.863281 C 408.464844 109.863281 408.746094 110.042969 408.746094 110.832031 C 408.746094 111.4375 409.03125 111.804688 409.496094 111.804688 C 409.910156 111.804688 410.488281 112.242188 410.78125 112.777344 C 411.121094 113.398438 411.777344 113.75 412.589844 113.75 C 413.472656 113.75 413.867188 113.988281 413.867188 114.527344 C 413.867188 114.953125 414.25 115.414062 414.71875 115.550781 C 415.191406 115.695312 415.574219 116.21875 415.574219 116.722656 C 415.574219 117.296875 415.875 117.636719 416.375 117.636719 C 416.820312 117.636719 417.28125 118.074219 417.402344 118.613281 C 417.527344 119.144531 417.933594 119.582031 418.304688 119.582031 C 418.679688 119.582031 418.988281 119.933594 418.988281 120.359375 C 418.988281 120.785156 419.371094 121.246094 419.839844 121.386719 C 420.308594 121.527344 420.691406 121.964844 420.691406 122.359375 C 420.691406 122.753906 421.078125 123.191406 421.546875 123.332031 C 422.015625 123.472656 422.398438 123.910156 422.398438 124.300781 C 422.398438 124.699219 422.785156 125.136719 423.253906 125.277344 C 423.726562 125.417969 424.109375 125.9375 424.109375 126.445312 C 424.109375 127.039062 424.410156 127.363281 424.960938 127.363281 C 425.527344 127.363281 425.8125 127.6875 425.8125 128.332031 C 425.8125 128.980469 426.097656 129.304688 426.667969 129.304688 C 427.375 129.304688 427.519531 129.628906 427.519531 131.25 C 427.519531 132.871094 427.664062 133.195312 428.371094 133.195312 C 429.125 133.195312 429.226562 133.519531 429.226562 135.914062 C 429.226562 138.222656 429.355469 138.671875 430.078125 138.886719 C 430.800781 139.101562 430.933594 139.550781 430.933594 141.800781 C 430.933594 144.058594 431.066406 144.507812 431.789062 144.71875 C 432.546875 144.945312 432.640625 145.382812 432.640625 148.609375 C 432.640625 151.835938 432.734375 152.273438 433.492188 152.496094 C 434.269531 152.726562 434.347656 153.160156 434.347656 157.359375 C 434.347656 161.558594 434.421875 161.988281 435.199219 162.21875 C 436 162.457031 436.050781 162.882812 436.050781 169.027344 C 436.050781 175.167969 436.105469 175.59375 436.90625 175.832031 C 437.746094 176.082031 437.761719 176.492188 437.761719 202.28125 C 437.761719 228.148438 437.75 228.472656 436.90625 228.472656 C 436.09375 228.472656 436.050781 228.796875 436.050781 235.277344 C 436.050781 241.757812 436.011719 242.082031 435.199219 242.082031 C 434.402344 242.082031 434.347656 242.40625 434.347656 246.828125 C 434.347656 251.046875 434.253906 251.636719 433.492188 252.179688 C 432.742188 252.710938 432.640625 253.3125 432.640625 257.15625 C 432.640625 261.203125 432.574219 261.527344 431.789062 261.527344 C 431.003906 261.527344 430.933594 261.851562 430.933594 265.417969 C 430.933594 268.980469 430.863281 269.304688 430.078125 269.304688 C 429.324219 269.304688 429.226562 269.628906 429.226562 272.105469 C 429.226562 274.378906 429.066406 275.019531 428.371094 275.511719 C 427.703125 275.988281 427.519531 276.644531 427.519531 278.542969 L 427.519531 280.972656 L 475.308594 280.972656 L 475.308594 276.308594 C 475.308594 272.054688 475.230469 271.625 474.453125 271.390625 C 473.660156 271.152344 473.601562 270.726562 473.601562 265.359375 C 473.601562 259.90625 473.550781 259.582031 472.746094 259.582031 C 471.929688 259.582031 471.890625 259.257812 471.890625 251.804688 C 471.890625 244.351562 471.855469 244.027344 471.039062 244.027344 C 470.214844 244.027344 470.1875 243.703125 470.1875 233.332031 C 470.1875 222.960938 470.160156 222.636719 469.332031 222.636719 C 468.488281 222.636719 468.480469 222.3125 468.480469 183.804688 C 468.480469 145.382812 468.492188 144.972656 469.332031 144.71875 C 470.148438 144.476562 470.1875 144.058594 470.1875 134.941406 C 470.1875 125.742188 470.214844 125.417969 471.039062 125.417969 C 471.796875 125.417969 471.890625 125.09375 471.890625 122.617188 C 471.890625 120.34375 472.054688 119.703125 472.746094 119.210938 C 473.414062 118.734375 473.601562 118.074219 473.601562 116.175781 C 473.601562 114.074219 473.714844 113.75 474.453125 113.75 C 475.164062 113.75 475.308594 113.425781 475.308594 111.804688 C 475.308594 110.1875 475.449219 109.863281 476.160156 109.863281 C 476.871094 109.863281 477.011719 109.539062 477.011719 107.917969 C 477.011719 106.296875 477.15625 105.972656 477.867188 105.972656 C 478.417969 105.972656 478.71875 105.648438 478.71875 105.054688 C 478.71875 104.550781 479.101562 104.027344 479.574219 103.886719 C 480.226562 103.691406 480.425781 103.222656 480.425781 101.886719 C 480.425781 100.460938 480.585938 100.136719 481.28125 100.136719 C 481.847656 100.136719 482.132812 99.8125 482.132812 99.167969 C 482.132812 98.519531 482.417969 98.195312 482.988281 98.195312 C 483.539062 98.195312 483.839844 97.871094 483.839844 97.28125 C 483.839844 96.773438 484.222656 96.25 484.691406 96.109375 C 485.164062 95.96875 485.546875 95.53125 485.546875 95.136719 C 485.546875 94.742188 485.929688 94.304688 486.398438 94.164062 C 486.867188 94.023438 487.253906 93.585938 487.253906 93.191406 C 487.253906 92.796875 487.636719 92.359375 488.109375 92.21875 C 488.574219 92.078125 488.960938 91.617188 488.960938 91.191406 C 488.960938 90.742188 489.316406 90.417969 489.8125 90.417969 C 490.382812 90.417969 490.667969 90.09375 490.667969 89.445312 C 490.667969 88.796875 490.953125 88.472656 491.519531 88.472656 C 492.089844 88.472656 492.371094 88.148438 492.371094 87.5 C 492.371094 86.710938 492.65625 86.527344 493.90625 86.527344 C 495.082031 86.527344 495.492188 86.300781 495.660156 85.554688 C 495.789062 85.019531 496.246094 84.582031 496.6875 84.582031 C 497.207031 84.582031 497.492188 84.238281 497.492188 83.613281 C 497.492188 82.820312 497.777344 82.636719 499.027344 82.636719 C 500.199219 82.636719 500.613281 82.410156 500.78125 81.667969 C 500.972656 80.84375 501.367188 80.695312 503.34375 80.695312 C 505.320312 80.695312 505.714844 80.542969 505.902344 79.722656 C 506.078125 78.960938 506.484375 78.75 507.785156 78.75 C 509.15625 78.75 509.441406 78.582031 509.441406 77.777344 C 509.441406 76.890625 509.722656 76.804688 512.679688 76.804688 C 515.5625 76.804688 515.945312 76.695312 516.140625 75.832031 C 516.339844 74.980469 516.726562 74.863281 519.296875 74.863281 C 521.773438 74.863281 522.316406 74.707031 522.765625 73.886719 C 523.257812 72.996094 523.761719 72.917969 528.996094 72.917969 C 534.332031 72.917969 534.707031 72.855469 534.917969 71.945312 C 535.121094 71.054688 535.5 70.972656 539.355469 70.972656 C 543.289062 70.972656 543.574219 70.90625 543.574219 70 C 543.574219 69.085938 543.855469 69.027344 548.519531 69.027344 C 553.109375 69.027344 553.480469 68.957031 553.691406 68.054688 C 553.890625 67.1875 554.269531 67.082031 557.277344 67.082031 C 560.355469 67.082031 560.640625 67 560.640625 66.113281 C 560.640625 65.226562 560.925781 65.136719 563.882812 65.136719 C 566.761719 65.136719 567.144531 65.03125 567.34375 64.167969 C 567.46875 63.628906 567.925781 63.195312 568.367188 63.195312 C 568.886719 63.195312 569.171875 62.851562 569.171875 62.222656 C 569.171875 61.429688 569.457031 61.25 570.707031 61.25 C 571.855469 61.25 572.292969 61.015625 572.453125 60.324219 C 572.570312 59.8125 573.03125 59.285156 573.476562 59.152344 C 574.152344 58.953125 574.292969 58.457031 574.292969 56.308594 C 574.292969 54.234375 574.464844 53.582031 575.148438 53.097656 C 576.226562 52.332031 576.242188 50.804688 575.179688 49.957031 C 574.710938 49.582031 574.300781 48.589844 574.222656 47.621094 C 574.09375 46.09375 573.945312 45.921875 572.601562 45.777344 C 571.753906 45.6875 570.882812 45.21875 570.550781 44.683594 C 569.636719 43.191406 529.359375 43.230469 528.539062 44.722656 C 528.039062 45.636719 527.546875 45.695312 520.007812 45.695312 C 512.46875 45.695312 511.976562 45.75 511.476562 46.667969 C 510.972656 47.578125 510.480469 47.636719 503.535156 47.636719 C 496.492188 47.636719 496.121094 47.683594 495.910156 48.613281 C 495.703125 49.511719 495.328125 49.582031 490.617188 49.582031 C 485.832031 49.582031 485.546875 49.527344 485.546875 48.613281 C 485.546875 47.960938 485.832031 47.636719 486.398438 47.636719 C 486.96875 47.636719 487.253906 47.3125 487.253906 46.667969 C 487.253906 45.875 487.535156 45.695312 488.785156 45.695312 C 489.960938 45.695312 490.375 45.46875 490.542969 44.722656 C 490.734375 43.890625 491.125 43.75 493.277344 43.75 C 495.503906 43.75 495.789062 43.640625 495.789062 42.777344 C 495.789062 41.914062 496.070312 41.804688 498.347656 41.804688 C 500.625 41.804688 500.90625 41.695312 500.90625 40.832031 C 500.90625 39.945312 501.191406 39.863281 504.144531 39.863281 C 507.027344 39.863281 507.414062 39.753906 507.609375 38.886719 C 507.808594 38.023438 508.191406 37.917969 511.023438 37.917969 C 513.851562 37.917969 514.238281 37.808594 514.4375 36.945312 C 514.632812 36.082031 515.019531 35.972656 517.847656 35.972656 C 520.679688 35.972656 521.066406 35.863281 521.261719 35 C 521.453125 34.164062 521.847656 34.027344 523.996094 34.027344 C 526.222656 34.027344 526.507812 33.917969 526.507812 33.054688 C 526.507812 32.199219 526.792969 32.082031 528.894531 32.082031 C 530.921875 32.082031 531.3125 31.9375 531.503906 31.113281 C 531.628906 30.574219 532.085938 30.136719 532.527344 30.136719 C 533.046875 30.136719 533.332031 29.792969 533.332031 29.167969 C 533.332031 28.519531 533.617188 28.195312 534.1875 28.195312 C 535 28.195312 535.039062 27.871094 535.039062 21.386719 C 535.039062 14.90625 535 14.582031 534.1875 14.582031 C 533.617188 14.582031 533.332031 14.257812 533.332031 13.613281 C 533.332031 12.980469 533.046875 12.636719 532.527344 12.636719 C 532.085938 12.636719 531.628906 12.203125 531.503906 11.667969 C 531.300781 10.78125 530.921875 10.695312 527.1875 10.695312 C 523.394531 10.695312 523.09375 10.625 523.09375 9.734375 C 523.09375 8.78125 522.617188 8.773438 474.453125 8.753906 C 426.011719 8.742188 425.8125 8.746094 425.8125 9.71875 M 835.414062 297.445312 C 835.414062 297.949219 835.03125 298.472656 834.558594 298.613281 C 833.90625 298.808594 833.707031 299.277344 833.707031 300.613281 C 833.707031 302.039062 833.546875 302.363281 832.851562 302.363281 C 832.152344 302.363281 832 302.6875 832 304.1875 C 832 305.488281 831.753906 306.191406 831.148438 306.625 C 830.613281 307.003906 830.292969 307.757812 830.292969 308.628906 C 830.292969 309.617188 830.042969 310.101562 829.441406 310.28125 C 828.71875 310.492188 828.585938 310.941406 828.585938 313.199219 C 828.585938 315.449219 828.453125 315.898438 827.734375 316.113281 C 827.078125 316.308594 826.878906 316.777344 826.878906 318.113281 C 826.878906 319.539062 826.722656 319.863281 826.027344 319.863281 C 825.316406 319.863281 825.171875 320.1875 825.171875 321.804688 C 825.171875 323.425781 825.03125 323.75 824.320312 323.75 C 823.617188 323.75 823.46875 324.074219 823.46875 325.578125 C 823.46875 326.878906 823.222656 327.578125 822.613281 328.011719 C 822.082031 328.390625 821.761719 329.144531 821.761719 330.019531 C 821.761719 331.007812 821.507812 331.488281 820.90625 331.667969 C 820.164062 331.890625 820.050781 332.332031 820.050781 335.03125 C 820.050781 339.140625 820.25 339.304688 825.171875 339.304688 C 829.621094 339.304688 830.292969 338.980469 830.292969 336.835938 C 830.292969 335.9375 830.5625 335.453125 831.148438 335.277344 C 831.800781 335.082031 832 334.613281 832 333.277344 L 832 331.527344 L 839.632812 331.527344 C 846.902344 331.527344 847.269531 331.574219 847.484375 332.5 C 847.605469 333.035156 848.003906 333.472656 848.367188 333.472656 C 848.867188 333.472656 849.054688 334.132812 849.152344 336.269531 L 849.28125 339.0625 L 854.292969 339.199219 L 859.308594 339.335938 L 859.308594 335.628906 C 859.308594 332.332031 859.210938 331.894531 858.453125 331.667969 C 857.730469 331.453125 857.601562 331.007812 857.601562 328.753906 C 857.601562 326.496094 857.46875 326.050781 856.746094 325.835938 C 856.144531 325.65625 855.890625 325.171875 855.890625 324.183594 C 855.890625 323.3125 855.574219 322.558594 855.039062 322.179688 C 854.433594 321.746094 854.1875 321.046875 854.1875 319.746094 C 854.1875 318.242188 854.035156 317.917969 853.332031 317.917969 C 852.640625 317.917969 852.480469 317.59375 852.480469 316.167969 C 852.480469 314.832031 852.28125 314.363281 851.628906 314.167969 C 850.90625 313.953125 850.773438 313.507812 850.773438 311.253906 C 850.773438 308.996094 850.640625 308.550781 849.921875 308.335938 C 849.316406 308.15625 849.066406 307.671875 849.066406 306.683594 C 849.066406 305.8125 848.746094 305.058594 848.210938 304.679688 C 847.605469 304.246094 847.359375 303.546875 847.359375 302.246094 C 847.359375 300.742188 847.207031 300.417969 846.507812 300.417969 C 845.796875 300.417969 845.652344 300.09375 845.652344 298.472656 L 845.652344 296.527344 L 840.53125 296.527344 C 835.804688 296.527344 835.414062 296.597656 835.414062 297.445312 M 864.425781 317.917969 L 864.425781 339.304688 L 872.960938 339.304688 L 872.960938 323.75 L 890.058594 323.75 L 889.933594 319.011719 L 889.8125 314.269531 L 881.386719 314.140625 L 872.960938 314.007812 L 872.960938 308.195312 L 890.027344 308.195312 L 890.027344 296.527344 L 864.425781 296.527344 L 864.425781 317.917969 M 897.136719 296.851562 C 896.980469 297.03125 896.851562 306.65625 896.851562 318.242188 L 896.851562 339.304688 L 905.386719 339.304688 L 905.386719 325.695312 L 907.09375 325.695312 C 908.371094 325.695312 908.800781 325.890625 908.800781 326.46875 C 908.800781 326.894531 909.183594 327.359375 909.652344 327.496094 C 910.125 327.636719 910.507812 328.160156 910.507812 328.667969 C 910.507812 329.257812 910.808594 329.582031 911.359375 329.582031 C 911.929688 329.582031 912.210938 329.90625 912.210938 330.554688 C 912.210938 331.183594 912.496094 331.527344 913.015625 331.527344 C 913.460938 331.527344 913.921875 331.964844 914.042969 332.5 C 914.164062 333.035156 914.574219 333.472656 914.945312 333.472656 C 915.34375 333.472656 915.628906 333.878906 915.628906 334.445312 C 915.628906 335.09375 915.910156 335.417969 916.480469 335.417969 C 917.046875 335.417969 917.332031 335.742188 917.332031 336.386719 C 917.332031 337.039062 917.617188 337.363281 918.1875 337.363281 C 918.753906 337.363281 919.039062 337.6875 919.039062 338.332031 C 919.039062 339.503906 927.777344 339.851562 928.769531 338.722656 C 929.699219 337.664062 929.425781 333.472656 928.425781 333.472656 C 927.855469 333.472656 927.574219 333.148438 927.574219 332.5 C 927.574219 331.851562 927.289062 331.527344 926.71875 331.527344 C 926.152344 331.527344 925.867188 331.203125 925.867188 330.554688 C 925.867188 329.90625 925.582031 329.582031 925.011719 329.582031 C 924.320312 329.582031 924.160156 329.257812 924.160156 327.835938 C 924.160156 326.527344 923.957031 326.027344 923.347656 325.847656 C 922.171875 325.496094 921.851562 323.75 922.960938 323.75 C 923.453125 323.75 923.90625 323.339844 924.039062 322.777344 C 924.160156 322.238281 924.617188 321.804688 925.0625 321.804688 C 925.714844 321.804688 925.867188 321.441406 925.867188 319.863281 C 925.867188 318.242188 926.007812 317.917969 926.71875 317.917969 C 927.527344 317.917969 927.574219 317.59375 927.574219 311.601562 C 927.574219 305.8125 927.503906 305.234375 926.71875 304.679688 C 926.140625 304.265625 925.867188 303.546875 925.867188 302.441406 C 925.867188 301.246094 925.648438 300.746094 925.054688 300.566406 C 924.605469 300.4375 924.140625 299.910156 924.027344 299.398438 C 923.867188 298.710938 923.429688 298.472656 922.328125 298.472656 C 921.207031 298.472656 920.792969 298.238281 920.621094 297.5 C 920.398438 296.515625 897.972656 295.898438 897.136719 296.851562 M 932.691406 317.332031 C 932.691406 341.46875 932.191406 339.304688 937.8125 339.304688 C 943.4375 339.304688 942.933594 341.46875 942.933594 317.332031 L 942.933594 296.527344 L 932.691406 296.527344 L 932.691406 317.332031 M 960.121094 297.5 C 959.949219 298.261719 959.542969 298.472656 958.242188 298.472656 C 956.886719 298.472656 956.585938 298.644531 956.585938 299.417969 C 956.585938 300.152344 956.238281 300.390625 954.988281 300.511719 C 953.472656 300.652344 953.378906 300.757812 953.253906 302.480469 C 953.148438 303.910156 952.941406 304.304688 952.292969 304.304688 C 951.765625 304.304688 951.46875 304.640625 951.46875 305.21875 C 951.46875 305.726562 951.085938 306.25 950.613281 306.390625 C 949.789062 306.636719 949.761719 307.054688 949.761719 317.917969 C 949.761719 328.777344 949.789062 329.199219 950.613281 329.441406 C 951.085938 329.582031 951.46875 330.105469 951.46875 330.613281 C 951.46875 331.203125 951.769531 331.527344 952.320312 331.527344 C 952.886719 331.527344 953.171875 331.851562 953.171875 332.5 C 953.171875 333.148438 953.457031 333.472656 954.027344 333.472656 C 954.597656 333.472656 954.878906 333.796875 954.878906 334.445312 C 954.878906 335.09375 955.164062 335.417969 955.734375 335.417969 C 956.304688 335.417969 956.585938 335.742188 956.585938 336.386719 C 956.585938 337.191406 956.871094 337.363281 958.242188 337.363281 C 959.542969 337.363281 959.949219 337.570312 960.121094 338.332031 C 960.335938 339.257812 960.707031 339.304688 967.855469 339.304688 C 975.074219 339.304688 975.359375 339.269531 975.359375 338.332031 C 975.359375 337.542969 975.644531 337.363281 976.894531 337.363281 C 978.042969 337.363281 978.480469 337.128906 978.640625 336.433594 C 979.054688 334.625 982.1875 334.808594 982.1875 336.644531 C 982.1875 339.039062 982.75 339.304688 987.820312 339.304688 C 992.046875 339.304688 992.425781 339.230469 992.425781 338.390625 C 992.425781 337.882812 992.808594 337.363281 993.28125 337.21875 C 994.003906 337.003906 994.132812 336.558594 994.132812 334.246094 L 994.132812 331.527344 L 1001.8125 331.527344 C 1009.207031 331.527344 1009.492188 331.5625 1009.492188 332.5 C 1009.492188 333.148438 1009.777344 333.472656 1010.347656 333.472656 C 1011.042969 333.472656 1011.199219 333.796875 1011.199219 335.21875 C 1011.199219 336.558594 1011.398438 337.027344 1012.050781 337.21875 C 1012.527344 337.363281 1012.90625 337.882812 1012.90625 338.390625 C 1012.90625 339.226562 1013.277344 339.304688 1017.171875 339.304688 L 1021.441406 339.304688 L 1021.441406 334.640625 C 1021.441406 330.386719 1021.367188 329.957031 1020.585938 329.722656 C 1019.984375 329.546875 1019.734375 329.0625 1019.734375 328.074219 C 1019.734375 327.199219 1019.414062 326.445312 1018.878906 326.070312 C 1018.273438 325.632812 1018.027344 324.933594 1018.027344 323.632812 C 1018.027344 322.128906 1017.875 321.804688 1017.171875 321.804688 C 1016.480469 321.804688 1016.320312 321.480469 1016.320312 320.058594 C 1016.320312 318.722656 1016.121094 318.253906 1015.46875 318.058594 C 1014.746094 317.84375 1014.613281 317.394531 1014.613281 315.140625 C 1014.613281 312.886719 1014.480469 312.4375 1013.761719 312.222656 C 1013.15625 312.046875 1012.90625 311.5625 1012.90625 310.574219 C 1012.90625 309.699219 1012.585938 308.945312 1012.050781 308.570312 C 1011.445312 308.132812 1011.199219 307.433594 1011.199219 306.132812 C 1011.199219 304.628906 1011.050781 304.304688 1010.347656 304.304688 C 1009.652344 304.304688 1009.492188 303.980469 1009.492188 302.558594 C 1009.492188 301.222656 1009.292969 300.753906 1008.640625 300.558594 C 1007.972656 300.359375 1007.789062 299.894531 1007.789062 298.414062 L 1007.789062 296.527344 L 1002.667969 296.527344 C 997.832031 296.527344 997.546875 296.582031 997.546875 297.5 C 997.546875 298.148438 997.261719 298.472656 996.691406 298.472656 C 995.992188 298.472656 995.839844 298.796875 995.839844 300.300781 C 995.839844 301.601562 995.59375 302.300781 994.988281 302.734375 C 994.453125 303.113281 994.132812 303.867188 994.132812 304.738281 C 994.132812 305.726562 993.882812 306.210938 993.28125 306.390625 C 992.558594 306.605469 992.425781 307.054688 992.425781 309.308594 C 992.425781 311.5625 992.292969 312.011719 991.574219 312.222656 C 990.917969 312.417969 990.71875 312.886719 990.71875 314.222656 C 990.71875 315.648438 990.5625 315.972656 989.867188 315.972656 C 989.15625 315.972656 989.011719 316.296875 989.011719 317.917969 C 989.011719 319.539062 988.871094 319.863281 988.160156 319.863281 C 987.457031 319.863281 987.308594 320.1875 987.308594 321.6875 C 987.308594 322.988281 987.0625 323.691406 986.453125 324.125 C 985.921875 324.503906 985.601562 325.257812 985.601562 326.128906 C 985.601562 327.117188 985.347656 327.601562 984.746094 327.78125 C 984.027344 327.992188 983.890625 328.441406 983.890625 330.699219 C 983.890625 332.949219 983.761719 333.398438 983.039062 333.613281 C 982.257812 333.847656 982.1875 333.628906 982.1875 330.953125 C 982.1875 328.488281 982.058594 327.996094 981.375 327.792969 C 980.925781 327.660156 980.460938 327.128906 980.347656 326.621094 C 980.015625 325.175781 972.402344 325.21875 972.070312 326.667969 C 971.867188 327.554688 971.488281 327.636719 967.632812 327.636719 C 963.695312 327.636719 963.414062 327.574219 963.414062 326.667969 C 963.414062 326.019531 963.128906 325.695312 962.558594 325.695312 C 962.0625 325.695312 961.707031 325.371094 961.707031 324.917969 C 961.707031 324.492188 961.324219 324.03125 960.851562 323.890625 C 960.207031 323.699219 960 323.226562 960 321.949219 C 960 320.664062 959.792969 320.195312 959.148438 320.003906 C 958 319.660156 957.835938 314.027344 958.972656 314.027344 C 959.347656 314.027344 959.75 313.613281 959.867188 313.101562 C 959.980469 312.589844 960.445312 312.0625 960.894531 311.933594 C 961.339844 311.796875 961.707031 311.367188 961.707031 310.96875 C 961.707031 310.574219 962.089844 310.136719 962.558594 309.996094 C 963.027344 309.859375 963.414062 309.394531 963.414062 308.96875 C 963.414062 308.40625 963.828125 308.195312 964.945312 308.195312 C 966.121094 308.195312 966.53125 307.96875 966.703125 307.222656 C 966.878906 306.460938 967.285156 306.25 968.582031 306.25 C 969.957031 306.25 970.238281 306.417969 970.238281 307.222656 C 970.238281 308.027344 970.523438 308.195312 971.894531 308.195312 C 973.195312 308.195312 973.601562 308.40625 973.777344 309.167969 C 974.101562 310.574219 978.316406 310.617188 978.640625 309.210938 C 978.757812 308.703125 979.21875 308.175781 979.664062 308.039062 C 980.113281 307.910156 980.480469 307.453125 980.480469 307.027344 C 980.480469 306.566406 980.839844 306.25 981.355469 306.25 C 982.148438 306.25 982.21875 305.996094 982.101562 303.457031 L 981.972656 300.660156 L 980.371094 300.511719 C 979.121094 300.390625 978.773438 300.152344 978.773438 299.417969 C 978.773438 298.816406 978.480469 298.472656 977.96875 298.472656 C 977.527344 298.472656 977.066406 298.035156 976.941406 297.5 C 976.730469 296.570312 976.359375 296.527344 968.53125 296.527344 C 960.707031 296.527344 960.339844 296.570312 960.121094 297.5 M 917.332031 311.113281 L 917.332031 314.027344 L 915.800781 314.027344 C 914.625 314.027344 914.214844 314.257812 914.042969 315 C 913.839844 315.890625 913.460938 315.972656 909.605469 315.972656 L 905.386719 315.972656 L 905.386719 308.195312 L 917.332031 308.195312 L 917.332031 311.113281 M 841.421875 315.839844 C 842.050781 316.03125 842.238281 316.519531 842.238281 317.972656 L 842.238281 319.863281 L 839.679688 319.863281 C 837.402344 319.863281 837.121094 319.753906 837.121094 318.886719 C 837.121094 318.242188 837.402344 317.917969 837.972656 317.917969 C 838.671875 317.917969 838.828125 317.59375 838.828125 316.144531 C 838.828125 313.898438 840.234375 312.359375 840.460938 314.359375 C 840.542969 315.085938 840.941406 315.695312 841.421875 315.839844 M 1002.667969 315 C 1002.667969 315.628906 1002.953125 315.972656 1003.472656 315.972656 C 1004.105469 315.972656 1004.320312 316.398438 1004.445312 317.917969 L 1004.609375 319.863281 L 1001.929688 319.863281 C 999.171875 319.863281 997.917969 318.425781 1000.109375 317.777344 C 1000.761719 317.582031 1000.960938 317.113281 1000.960938 315.777344 C 1000.960938 314.351562 1001.117188 314.027344 1001.8125 314.027344 C 1002.382812 314.027344 1002.667969 314.351562 1002.667969 315 "/>
<path style=" stroke:none;fill-rule:evenodd;fill:rgb(97.254902%,94.117647%,65.882355%);fill-opacity:1;" d="M 824.066406 124.566406 C 823.261719 125.648438 823.261719 125.652344 824.109375 124.871094 C 824.574219 124.441406 825.246094 123.964844 825.601562 123.816406 C 826.144531 123.589844 826.136719 123.542969 825.558594 123.507812 C 825.183594 123.488281 824.511719 123.964844 824.066406 124.566406 M 855.46875 125.761719 C 855.816406 125.910156 856.492188 126.386719 856.960938 126.816406 C 857.804688 127.597656 857.808594 127.59375 857 126.511719 C 856.554688 125.910156 855.882812 125.433594 855.507812 125.453125 C 854.929688 125.488281 854.921875 125.535156 855.46875 125.761719 M 360.53125 127.707031 C 360.886719 127.851562 361.554688 128.328125 362.027344 128.761719 C 362.871094 129.539062 362.871094 129.539062 362.070312 128.457031 C 361.621094 127.851562 360.945312 127.378906 360.574219 127.398438 C 359.996094 127.433594 359.988281 127.480469 360.53125 127.707031 M 882.96875 168.316406 L 881.28125 170.382812 L 883.09375 168.460938 C 884.78125 166.671875 885.101562 166.25 884.78125 166.25 C 884.710938 166.25 883.894531 167.179688 882.96875 168.316406 M 815.53125 279.878906 C 815.980469 280.480469 816.652344 280.953125 817.027344 280.933594 C 817.601562 280.902344 817.609375 280.855469 817.066406 280.628906 C 816.714844 280.480469 816.042969 280.003906 815.574219 279.570312 C 814.726562 278.792969 814.726562 278.796875 815.53125 279.878906 "/>
<path style=" stroke:none;fill-rule:evenodd;fill:rgb(97.254902%,94.117647%,65.882355%);fill-opacity:1;" d="M 824.066406 124.566406 C 823.261719 125.648438 823.261719 125.652344 824.109375 124.871094 C 824.574219 124.441406 825.246094 123.964844 825.601562 123.816406 C 826.144531 123.589844 826.136719 123.542969 825.558594 123.507812 C 825.183594 123.488281 824.511719 123.964844 824.066406 124.566406 M 855.46875 125.761719 C 855.816406 125.910156 856.492188 126.386719 856.960938 126.816406 C 857.804688 127.597656 857.808594 127.59375 857 126.511719 C 856.554688 125.910156 855.882812 125.433594 855.507812 125.453125 C 854.929688 125.488281 854.921875 125.535156 855.46875 125.761719 M 360.53125 127.707031 C 360.886719 127.851562 361.554688 128.328125 362.027344 128.761719 C 362.871094 129.539062 362.871094 129.539062 362.070312 128.457031 C 361.621094 127.851562 360.945312 127.378906 360.574219 127.398438 C 359.996094 127.433594 359.988281 127.480469 360.53125 127.707031 M 882.96875 168.316406 L 881.28125 170.382812 L 883.09375 168.460938 C 884.78125 166.671875 885.101562 166.25 884.78125 166.25 C 884.710938 166.25 883.894531 167.179688 882.96875 168.316406 M 815.53125 279.878906 C 815.980469 280.480469 816.652344 280.953125 817.027344 280.933594 C 817.601562 280.902344 817.609375 280.855469 817.066406 280.628906 C 816.714844 280.480469 816.042969 280.003906 815.574219 279.570312 C 814.726562 278.792969 814.726562 278.796875 815.53125 279.878906 "/>
<path style=" stroke:none;fill-rule:evenodd;fill:rgb(97.254902%,94.117647%,65.882355%);fill-opacity:1;" d="M 824.066406 124.566406 C 823.261719 125.648438 823.261719 125.652344 824.109375 124.871094 C 824.574219 124.441406 825.246094 123.964844 825.601562 123.816406 C 826.144531 123.589844 826.136719 123.542969 825.558594 123.507812 C 825.183594 123.488281 824.511719 123.964844 824.066406 124.566406 M 855.46875 125.761719 C 855.816406 125.910156 856.492188 126.386719 856.960938 126.816406 C 857.804688 127.597656 857.808594 127.59375 857 126.511719 C 856.554688 125.910156 855.882812 125.433594 855.507812 125.453125 C 854.929688 125.488281 854.921875 125.535156 855.46875 125.761719 M 360.53125 127.707031 C 360.886719 127.851562 361.554688 128.328125 362.027344 128.761719 C 362.871094 129.539062 362.871094 129.539062 362.070312 128.457031 C 361.621094 127.851562 360.945312 127.378906 360.574219 127.398438 C 359.996094 127.433594 359.988281 127.480469 360.53125 127.707031 M 882.96875 168.316406 L 881.28125 170.382812 L 883.09375 168.460938 C 884.78125 166.671875 885.101562 166.25 884.78125 166.25 C 884.710938 166.25 883.894531 167.179688 882.96875 168.316406 M 815.53125 279.878906 C 815.980469 280.480469 816.652344 280.953125 817.027344 280.933594 C 817.601562 280.902344 817.609375 280.855469 817.066406 280.628906 C 816.714844 280.480469 816.042969 280.003906 815.574219 279.570312 C 814.726562 278.792969 814.726562 278.796875 815.53125 279.878906 "/>
</g>
</svg>
